<svg xmlns="http://www.w3.org/2000/svg" version="1.1" xmlns:xlink="http://www.w3.org/1999/xlink" xmlns:svgjs="http://svgjs.dev/svgjs" width="1000" height="174" viewBox="0 0 1000 174"><g transform="matrix(1,0,0,1,-0.6060597950377087,0.08568759981253038)"><svg viewBox="0 0 396 69" data-background-color="#8abcd7" preserveAspectRatio="xMidYMid meet" height="174" width="1000" xmlns="http://www.w3.org/2000/svg" xmlns:xlink="http://www.w3.org/1999/xlink"><g id="tight-bounds" transform="matrix(1,0,0,1,0.24000032116509828,-0.033978538043925255)"><svg viewBox="0 0 395.52 69.06793933010543" height="69.06793933010543" width="395.52"><g><svg viewBox="0 0 525.0388326959088 91.68525041108012" height="69.06793933010543" width="395.52"><g transform="matrix(1,0,0,1,129.51883269590883,12.671405809346098)"><svg viewBox="0 0 395.52 66.34243879238792" height="66.34243879238792" width="395.52"><g id="textblocktransform"><svg viewBox="0 0 395.52 66.34243879238792" height="66.34243879238792" width="395.52" id="textblock"><g><svg viewBox="0 0 395.52 35.9454565309713" height="35.9454565309713" width="395.52"><g transform="matrix(1,0,0,1,0,0)"><svg width="395.52" viewBox="0.020000001415610313 -36.11000061035156 401.45001220703125 36.56999969482422" height="35.9454565309713" data-palette-color="#dcf5f5"><g class="wordmark-text-0" data-fill-palette-color="primary" id="text-0"><path d="M29.39-33.91L29.39-33.91Q29.39-32.79 27.03-32.79L27.03-32.79 21.36-32.79 21.36 0 8.86 0 8.86-32.79 5.2-32.79Q3.32-32.79 2.61-32.62L2.61-32.62Q1.68-32.42 1.27-32.42L1.27-32.42Q0.02-32.42 0.02-33.4L0.02-33.4Q0.02-34.55 2.44-34.55L2.44-34.55 24.22-34.55Q25.9-34.55 26.71-34.69L26.71-34.69Q27.69-34.86 28.17-34.86L28.17-34.86Q29.39-34.86 29.39-33.91ZM55.98-2.1L55.98-2.1Q57.22-2.1 57.22-1.12L57.22-1.12Q57.22-0.68 56.69-0.34 56.15 0 54.83 0L54.83 0 34.15 0 34.15-34.55Q43.77-34.55 53.39-34.55L53.39-34.55 55.39-34.62Q57.22-34.62 57.22-33.54L57.22-33.54Q57.22-33.13 56.92-32.78 56.61-32.42 56.22-32.42L56.22-32.42Q55.59-32.42 54.88-32.57L54.88-32.57Q53.83-32.79 52-32.79L52-32.79 46.6-32.79 46.6-25.34 51.05-25.34Q51.05-25.34 54.05-25.46L54.05-25.46Q54.59-25.46 54.97-25.21 55.34-24.95 55.34-24.49L55.34-24.49Q55.34-23.46 53.98-23.46L53.98-23.46 52.93-23.49Q52.12-23.56 51.58-23.56L51.58-23.56 46.6-23.56 46.6-1.78 52-1.78Q53.81-1.78 54.56-1.93L54.56-1.93Q55.47-2.1 55.98-2.1ZM76.7-4.35L69.87-4.35Q65.4-4.35 63.76-4.42L63.76-4.42 63.06-2.73Q62.74-2.03 62.47-1.25L62.47-1.25Q61.91 0.27 60.91 0.27L60.91 0.27Q60.44 0.27 60.15-0.02 59.86-0.32 59.86-0.63L59.86-0.63Q59.86-1.17 60.32-1.83L60.32-1.83Q61.05-2.86 61.76-4.52L61.76-4.52Q59.66-4.71 59.66-5.74 59.66-6.76 60.86-6.76L60.86-6.76Q61.59-6.76 62.57-6.52L62.57-6.52 74.75-36.11 91.45 0 78.73 0 76.7-4.35ZM69.79-19.29L64.55-6.32Q66.89-6.13 68.75-6.13L68.75-6.13 75.9-6.13 69.79-19.29Z" fill="#dcf5f5" data-fill-palette-color="primary"></path><path d="M127.82-2.22L127.82-2.22Q129.12-2.22 129.12-1.12L129.12-1.12Q129.12-0.68 128.59-0.34 128.07 0 126.73 0L126.73 0 106.9 0 106.9-34.55 119.35-34.55 119.35-1.61 123.92-1.61Q125.46-1.61 126.57-1.92 127.68-2.22 127.82-2.22ZM155.19-2.1L155.19-2.1Q156.44-2.1 156.44-1.12L156.44-1.12Q156.44-0.68 155.9-0.34 155.36 0 154.04 0L154.04 0 133.36 0 133.36-34.55Q142.98-34.55 152.6-34.55L152.6-34.55 154.6-34.62Q156.44-34.62 156.44-33.54L156.44-33.54Q156.44-33.13 156.13-32.78 155.82-32.42 155.43-32.42L155.43-32.42Q154.8-32.42 154.09-32.57L154.09-32.57Q153.04-32.79 151.21-32.79L151.21-32.79 145.82-32.79 145.82-25.34 150.26-25.34Q150.26-25.34 153.26-25.46L153.26-25.46Q153.8-25.46 154.18-25.21 154.56-24.95 154.56-24.49L154.56-24.49Q154.56-23.46 153.19-23.46L153.19-23.46 152.14-23.49Q151.33-23.56 150.8-23.56L150.8-23.56 145.82-23.56 145.82-1.78 151.21-1.78Q153.02-1.78 153.77-1.93L153.77-1.93Q154.68-2.1 155.19-2.1ZM175.92-4.35L169.08-4.35Q164.61-4.35 162.98-4.42L162.98-4.42 162.27-2.73Q161.95-2.03 161.68-1.25L161.68-1.25Q161.12 0.27 160.12 0.27L160.12 0.27Q159.66 0.27 159.36-0.02 159.07-0.32 159.07-0.63L159.07-0.63Q159.07-1.17 159.53-1.83L159.53-1.83Q160.27-2.86 160.97-4.52L160.97-4.52Q158.87-4.71 158.87-5.74 158.87-6.76 160.07-6.76L160.07-6.76Q160.8-6.76 161.78-6.52L161.78-6.52 173.96-36.11 190.66 0 177.94 0 175.92-4.35ZM169.01-19.29L163.76-6.32Q166.1-6.13 167.96-6.13L167.96-6.13 175.11-6.13 169.01-19.29ZM216.34-22.17L216.34-22.17 215.34-22.19Q214.8-22.24 213.97-22.24L213.97-22.24 208.51-22.24 208.51 0 196.05 0 196.05-34.55 215.44-34.55 217.86-34.62 218.3-34.62Q220.13-34.62 220.13-33.54L220.13-33.54Q220.13-33.13 219.8-32.78 219.47-32.42 219.08-32.42L219.08-32.42Q218.44-32.42 217.86-32.54L217.86-32.54Q216.73-32.79 214.93-32.79L214.93-32.79 208.51-32.79 208.51-24 213.41-24Q213.41-24 216.44-24.12L216.44-24.12Q217.76-24.12 217.76-23.14 217.76-22.17 216.34-22.17Z" fill="#ffffff" data-fill-palette-color="secondary"></path><path d="M260.65-33.91L260.65-33.91Q260.65-32.79 258.29-32.79L258.29-32.79 252.62-32.79 252.62 0 240.12 0 240.12-32.79 236.46-32.79Q234.58-32.79 233.87-32.62L233.87-32.62Q232.94-32.42 232.53-32.42L232.53-32.42Q231.28-32.42 231.28-33.4L231.28-33.4Q231.28-34.55 233.7-34.55L233.7-34.55 255.48-34.55Q257.16-34.55 257.97-34.69L257.97-34.69Q258.95-34.86 259.43-34.86L259.43-34.86Q260.65-34.86 260.65-33.91ZM278.77-4.35L271.93-4.35Q267.46-4.35 265.83-4.42L265.83-4.42 265.12-2.73Q264.8-2.03 264.53-1.25L264.53-1.25Q263.97 0.27 262.97 0.27L262.97 0.27Q262.51 0.27 262.21-0.02 261.92-0.32 261.92-0.63L261.92-0.63Q261.92-1.17 262.39-1.83L262.39-1.83Q263.12-2.86 263.83-4.52L263.83-4.52Q261.73-4.71 261.73-5.74 261.73-6.76 262.92-6.76L262.92-6.76Q263.66-6.76 264.63-6.52L264.63-6.52 276.81-36.11 293.51 0 280.79 0 278.77-4.35ZM271.86-19.29L266.61-6.32Q268.95-6.13 270.81-6.13L270.81-6.13 277.96-6.13 271.86-19.29ZM315.36-11.84L315.36-11.84 317.36-11.69Q321.66-11.69 324.66-14.7L324.66-14.7Q327.67-17.7 327.67-22.17L327.67-22.17Q327.67-28.03 322.52-30.86L322.52-30.86Q319.68-32.42 316.46-32.67L316.46-32.67Q315.09-32.79 313.92-32.79L313.92-32.79 312.26-32.79Q311.75-32.79 311.36-32.76L311.36-32.76 311.36 0 298.91 0 298.91-34.55Q304.62-34.55 308.16-34.55 311.7-34.55 312.77-34.52 313.85-34.5 314.69-34.46 315.53-34.42 316.27-34.38L316.27-34.38Q317.34-34.28 319.3-33.91 321.27-33.54 323.2-32.52 325.13-31.49 326.52-29.98L326.52-29.98Q329.52-26.76 329.52-22.31L329.52-22.31Q329.52-17.92 326.74-14.55L326.74-14.55Q323.88-11.11 319.12-10.11L319.12-10.11Q321.39-3.08 324.91-1.71L324.91-1.71Q325.98-1.29 327.06-1.29L327.06-1.29 328.98-1.76Q329.89-1.76 329.89-0.83L329.89-0.83Q329.89 0.46 326.86 0.46L326.86 0.46Q324.66 0.46 322.83-0.76L322.83-0.76Q319.98-2.47 317.97-7.4L317.97-7.4 317.27-9.13Q317.1-9.55 316.96-9.64 316.83-9.74 316.5-9.74 316.17-9.74 315.92-9.69L315.92-9.69 315.34-9.67Q314.36-9.67 314.01-10.03 313.65-10.4 313.65-10.79L313.65-10.79Q313.65-11.84 315.36-11.84ZM339.16-4.41Q336.75-6.76 335.32-10.12 333.89-13.48 333.89-17.44 333.89-21.41 335.24-24.57 336.6-27.73 338.99-30.05L338.99-30.05Q344.12-34.99 351.86-34.99L351.86-34.99Q359.55-34.99 364.46-30.13L364.46-30.13Q369.44-25.2 369.44-17.33L369.44-17.33Q369.44-9.5 364.33-4.44L364.33-4.44Q361.14-1.32 356.47-0.12L356.47-0.12Q354.15 0.46 351.09 0.46 348.03 0.46 344.8-0.79 341.58-2.05 339.16-4.41ZM351.83-33.2L351.83-33.2Q350.49-33.2 349.32-33.01L349.32-33.01 349.32-1.51Q350.44-1.32 351.83-1.32L351.83-1.32Q358.35-1.32 362.82-5.66L362.82-5.66Q367.48-10.18 367.48-17.33L367.48-17.33Q367.48-24.15 363.11-28.66L363.11-28.66Q358.69-33.2 351.83-33.2ZM401.47-33.91L401.47-33.91Q401.47-32.79 399.1-32.79L399.1-32.79 393.43-32.79 393.43 0 380.93 0 380.93-32.79 377.27-32.79Q375.39-32.79 374.68-32.62L374.68-32.62Q373.76-32.42 373.34-32.42L373.34-32.42Q372.1-32.42 372.1-33.4L372.1-33.4Q372.1-34.55 374.51-34.55L374.51-34.55 396.29-34.55Q397.97-34.55 398.78-34.69L398.78-34.69Q399.76-34.86 400.24-34.86L400.24-34.86Q401.47-34.86 401.47-33.91Z" fill="#dcf5f5" data-fill-palette-color="primary"></path></g></svg></g></svg></g><g transform="matrix(1,0,0,1,0,44.43131612697688)"><svg viewBox="0 0 232.209792 21.911122665411053" height="21.911122665411053" width="232.209792"><g transform="matrix(1,0,0,1,0,0)"><svg width="232.209792" viewBox="0.3500000238418579 -37.599998474121094 530.8900146484375 50.099998474121094" height="21.911122665411053" data-palette-color="#ffffff"><path d="M9.05-8.95L9.05-8.95Q9.05-6.55 10.28-5.23 11.5-3.9 13.8-3.9L13.8-3.9Q16.45-3.9 19.15-5.35 21.85-6.8 23.05-9L23.05-9 24.2-8.5Q22.35-4.25 18.28-1.68 14.2 0.9 9.55 0.9L9.55 0.9Q5.25 0.9 2.8-1.5 0.35-3.9 0.35-7.9L0.35-7.9Q0.35-12.25 3-16.07 5.65-19.9 9.6-20.85L9.6-20.85Q8.1-21.9 7.33-23.45 6.55-25 6.55-26.85L6.55-26.85Q6.55-31.05 9.78-34.33 13-37.6 17.5-37.6L17.5-37.6Q20.7-37.6 22.68-35.9 24.65-34.2 24.65-31.35L24.65-31.35Q24.65-29.15 23.58-27.65 22.5-26.15 20.95-26.15L20.95-26.15Q20.25-26.15 19.68-26.5 19.1-26.85 18.6-27.5L18.6-27.5Q19.5-27.8 20.15-29.13 20.8-30.45 20.8-31.85L20.8-31.85Q20.8-33.15 20.05-33.9 19.3-34.65 18.05-34.65L18.05-34.65Q15.95-34.65 14.45-32.52 12.95-30.4 12.95-27.6L12.95-27.6Q12.95-25.1 14.28-23.33 15.6-21.55 18-20.9L18-20.9Q14.3-20.05 11.68-16.43 9.05-12.8 9.05-8.95ZM47.45-5.35L47.45-5.35Q47.45-6.25 47.67-7.6 47.9-8.95 48.6-11.9L48.6-11.9Q49.3-14.75 49.5-16 49.7-17.25 49.7-18.1L49.7-18.1Q49.7-19.35 49.25-20 48.8-20.65 47.9-20.65L47.9-20.65Q46.7-20.65 45.67-19.43 44.65-18.2 44-16.05L44-16.05 40.6 0 33.4 0 37.05-17.25Q37.15-17.55 37.17-17.85 37.2-18.15 37.2-18.5L37.2-18.5Q37.2-19.5 36.8-20.1 36.4-20.7 35.7-20.7L35.7-20.7Q34.4-20.7 33.35-19.48 32.3-18.25 31.65-16.05L31.65-16.05 28.25 0 21.05 0 26.35-25 33.55-25 33-22.4Q34.25-23.85 35.75-24.55 37.25-25.25 39.1-25.25L39.1-25.25Q41.3-25.25 42.57-24.18 43.85-23.1 44.25-20.95L44.25-20.95Q45.65-23.1 47.35-24.15 49.05-25.2 51.2-25.2L51.2-25.2Q53.85-25.2 55.3-23.75 56.75-22.3 56.75-19.55L56.75-19.55Q56.75-18.4 56.47-16.82 56.2-15.25 55.4-12L55.4-12Q54.75-9.45 54.55-8.4 54.35-7.35 54.35-6.65L54.35-6.65Q54.35-5.6 54.85-5.08 55.35-4.55 56.35-4.55L56.35-4.55Q57.6-4.55 58.5-5.4 59.4-6.25 60.55-8.95L60.55-8.95 62.65-8.95Q61.05-4.3 58.77-2 56.5 0.3 53.35 0.3L53.35 0.3Q50.55 0.3 49-1.23 47.45-2.75 47.45-5.35ZM67.2 0.3L67.2 0.3Q63.84 0.3 62.02-1.38 60.2-3.05 60.2-6.1L60.2-6.1Q60.2-6.8 60.3-7.5 60.4-8.2 60.55-8.95L60.55-8.95 65.89-34 73.3-35 70.9-23.75Q72.09-24.5 73.02-24.83 73.95-25.15 75-25.15L75-25.15Q77.95-25.15 79.42-23.03 80.9-20.9 80.9-16.6L80.9-16.6Q80.9-13.65 80-10.55 79.09-7.45 77.5-5.15L77.5-5.15Q75.65-2.45 73.05-1.07 70.45 0.3 67.2 0.3ZM67.34-6.85L67.34-6.85Q67.34-5.7 68.02-5.13 68.7-4.55 70-4.55L70-4.55Q72.25-4.55 74.05-8.5 75.84-12.45 75.84-16.8L75.84-16.8Q75.84-18.9 75.12-20.25 74.4-21.6 73.2-21.6L73.2-21.6Q72.4-21.6 71.5-21.35 70.59-21.1 70.25-20.7L70.25-20.7 67.5-8Q67.45-7.7 67.39-7.4 67.34-7.1 67.34-6.85ZM92.04-19L88.04 0 80.84 0 86.14-25 93.34-25 92.69-21.9Q94.89-23.75 96.17-24.38 97.44-25 98.74-25L98.74-25Q100.29-25 101.24-23.93 102.19-22.85 102.19-21.25L102.19-21.25Q102.19-19.7 101.19-18.65 100.19-17.6 98.59-17.6L98.59-17.6Q97.74-17.6 97.27-18 96.79-18.4 96.59-19.65L96.59-19.65Q96.44-20.45 96.24-20.68 96.04-20.9 95.69-20.9L95.69-20.9Q94.84-20.9 94.09-20.55 93.34-20.2 92.04-19L92.04-19ZM116.94-22.7L116.94-22.7 116.94-22.35 117.49-25 124.69-25 121.09-8Q120.99-7.55 120.94-7.18 120.89-6.8 120.89-6.4L120.89-6.4Q120.89-5.3 121.39-4.78 121.89-4.25 122.94-4.25L122.94-4.25Q124.24-4.25 125.29-5.48 126.34-6.7 126.99-8.95L126.99-8.95 129.09-8.95Q127.49-4.35 124.94-2.02 122.39 0.3 119.04 0.3L119.04 0.3Q116.89 0.3 115.62-0.9 114.34-2.1 114.14-4.3L114.14-4.3Q112.59-2 110.72-0.85 108.84 0.3 106.69 0.3L106.69 0.3Q103.59 0.3 101.82-1.8 100.04-3.9 100.04-7.75L100.04-7.75Q100.04-10.55 100.89-13.6 101.74-16.65 103.24-19.15L103.24-19.15Q105.09-22.1 107.54-23.68 109.99-25.25 112.89-25.25L112.89-25.25Q114.84-25.25 115.89-24.58 116.94-23.9 116.94-22.7ZM114.09-8.95L116.49-20.25Q116.49-21 115.94-21.58 115.39-22.15 114.44-22.15L114.44-22.15Q111.69-22.15 109.57-17.55 107.44-12.95 107.44-8.45L107.44-8.45Q107.44-6.5 107.99-5.53 108.54-4.55 109.94-4.55L109.94-4.55Q111.24-4.55 112.47-5.8 113.69-7.05 114.09-8.95L114.09-8.95ZM145.34-20.85L145.34-20.85Q145.34-19.15 144.61-18.18 143.89-17.2 142.69-17.2L142.69-17.2Q142.29-17.2 141.84-17.35 141.39-17.5 140.94-17.8L140.94-17.8Q141.24-18.6 141.39-19.35 141.54-20.1 141.54-20.75L141.54-20.75Q141.54-21.75 141.19-22.28 140.84-22.8 140.14-22.8L140.14-22.8Q137.94-22.8 135.84-17.73 133.74-12.65 133.74-8.1L133.74-8.1Q133.74-5.8 134.51-4.85 135.29-3.9 137.34-3.9L137.34-3.9Q139.69-3.9 141.66-4.98 143.64-6.05 146.19-8.95L146.19-8.95 147.89-8.95Q144.99-4.25 141.59-1.98 138.19 0.3 134.14 0.3L134.14 0.3Q130.29 0.3 128.31-1.7 126.34-3.7 126.34-7.65L126.34-7.65Q126.34-10.5 127.21-13.7 128.09-16.9 129.64-19.4L129.64-19.4Q131.49-22.4 134.06-23.93 136.64-25.45 139.79-25.45L139.79-25.45Q142.54-25.45 143.94-24.28 145.34-23.1 145.34-20.85ZM164.53-20.65L164.53-20.65Q164.53-16.5 161.13-13.43 157.74-10.35 153.03-10.1L153.03-10.1Q152.99-9.25 152.96-8.83 152.94-8.4 152.94-8.1L152.94-8.1Q152.94-5.8 153.71-4.85 154.49-3.9 156.53-3.9L156.53-3.9Q158.88-3.9 160.86-4.98 162.84-6.05 165.38-8.95L165.38-8.95 167.09-8.95Q164.19-4.25 160.78-1.98 157.38 0.3 153.34 0.3L153.34 0.3Q149.49 0.3 147.51-1.7 145.53-3.7 145.53-7.65L145.53-7.65Q145.53-10.5 146.44-13.7 147.34-16.9 148.84-19.4L148.84-19.4Q150.69-22.4 153.26-23.93 155.84-25.45 159.03-25.45L159.03-25.45Q161.78-25.45 163.16-24.28 164.53-23.1 164.53-20.65ZM159.44-22.8L159.44-22.8Q157.74-22.8 156.01-19.78 154.28-16.75 153.44-12.5L153.44-12.5Q156.34-12.7 158.51-15.18 160.69-17.65 160.69-20.75L160.69-20.75Q160.69-21.8 160.38-22.3 160.09-22.8 159.44-22.8ZM177.58-23L177.98-25 179.63-25 181.13-31.9 188.53-32.9 186.83-25 189.83-25 189.43-23 186.43-23 183.23-8Q183.13-7.55 183.08-7.18 183.03-6.8 183.03-6.4L183.03-6.4Q183.03-5.4 183.5-4.98 183.98-4.55 185.08-4.55L185.08-4.55Q186.48-4.55 187.73-5.78 188.98-7 189.58-8.95L189.58-8.95 191.68-8.95Q190.08-4.4 187.38-2.05 184.68 0.3 181.18 0.3L181.18 0.3Q178.68 0.3 177.25-1.28 175.83-2.85 175.83-5.7L175.83-5.7Q175.83-6.35 175.93-7.18 176.03-8 176.23-8.95L176.23-8.95 179.23-23 177.58-23ZM202.08-5.35L202.08-5.35Q202.08-6.25 202.3-7.6 202.53-8.95 203.23-11.9L203.23-11.9Q203.93-14.75 204.13-16 204.33-17.25 204.33-18.1L204.33-18.1Q204.33-19.35 203.85-20 203.38-20.65 202.48-20.65L202.48-20.65Q201.28-20.65 200.15-19.23 199.03-17.8 198.68-16.25L198.68-16.25 195.23 0 188.03 0 195.28-34 202.68-35 199.98-22.4Q201.23-23.8 202.68-24.5 204.13-25.2 205.83-25.2L205.83-25.2Q208.48-25.2 209.93-23.75 211.38-22.3 211.38-19.55L211.38-19.55Q211.38-18.4 211.1-16.82 210.83-15.25 210.03-12L210.03-12Q209.38-9.45 209.18-8.4 208.98-7.35 208.98-6.65L208.98-6.65Q208.98-5.6 209.48-5.08 209.98-4.55 210.98-4.55L210.98-4.55Q212.23-4.55 213.13-5.4 214.03-6.25 215.18-8.95L215.18-8.95 217.28-8.95Q215.68-4.3 213.4-2 211.13 0.3 207.98 0.3L207.98 0.3Q205.18 0.3 203.63-1.23 202.08-2.75 202.08-5.35ZM233.27-20.65L233.27-20.65Q233.27-16.5 229.87-13.43 226.47-10.35 221.77-10.1L221.77-10.1Q221.72-9.25 221.7-8.83 221.67-8.4 221.67-8.1L221.67-8.1Q221.67-5.8 222.45-4.85 223.22-3.9 225.27-3.9L225.27-3.9Q227.62-3.9 229.6-4.98 231.57-6.05 234.13-8.95L234.13-8.95 235.82-8.95Q232.92-4.25 229.52-1.98 226.12 0.3 222.07 0.3L222.07 0.3Q218.22 0.3 216.25-1.7 214.27-3.7 214.27-7.65L214.27-7.65Q214.27-10.5 215.17-13.7 216.07-16.9 217.57-19.4L217.57-19.4Q219.42-22.4 222-23.93 224.57-25.45 227.77-25.45L227.77-25.45Q230.52-25.45 231.9-24.28 233.27-23.1 233.27-20.65ZM228.17-22.8L228.17-22.8Q226.47-22.8 224.75-19.78 223.02-16.75 222.17-12.5L222.17-12.5Q225.07-12.7 227.25-15.18 229.42-17.65 229.42-20.75L229.42-20.75Q229.42-21.8 229.12-22.3 228.82-22.8 228.17-22.8ZM266.97-10.45L277.97-36.8 285.17-36.8 279.92 0 272.72 0 275.92-22.45 266.52 0 259.67 0 260.67-22.55 252.32 0 248.32 0 261.02-34.35Q257.17-33.05 255.12-30.15 253.07-27.25 253.07-23.1L253.07-23.1Q253.07-22.1 253.19-21.38 253.32-20.65 253.62-20.05L253.62-20.05Q253.72-19.85 253.75-19.78 253.77-19.7 253.77-19.65L253.77-19.65Q251.07-19.65 249.75-20.78 248.42-21.9 248.42-24.2L248.42-24.2Q248.42-26.6 249.9-29.08 251.37-31.55 253.97-33.6L253.97-33.6Q256.32-35.45 259.02-36.48 261.72-37.5 264.32-37.5L264.32-37.5Q265.27-37.5 266.25-37.33 267.22-37.15 268.12-36.8L268.12-36.8 266.97-10.45ZM300.57-22.7L300.57-22.7 300.57-22.35 301.12-25 308.32-25 304.72-8Q304.62-7.55 304.57-7.18 304.52-6.8 304.52-6.4L304.52-6.4Q304.52-5.3 305.02-4.78 305.52-4.25 306.57-4.25L306.57-4.25Q307.87-4.25 308.92-5.48 309.97-6.7 310.62-8.95L310.62-8.95 312.72-8.95Q311.12-4.35 308.57-2.02 306.02 0.3 302.67 0.3L302.67 0.3Q300.52 0.3 299.24-0.9 297.97-2.1 297.77-4.3L297.77-4.3Q296.22-2 294.34-0.85 292.47 0.3 290.32 0.3L290.32 0.3Q287.22 0.3 285.44-1.8 283.67-3.9 283.67-7.75L283.67-7.75Q283.67-10.55 284.52-13.6 285.37-16.65 286.87-19.15L286.87-19.15Q288.72-22.1 291.17-23.68 293.62-25.25 296.52-25.25L296.52-25.25Q298.47-25.25 299.52-24.58 300.57-23.9 300.57-22.7ZM297.72-8.95L300.12-20.25Q300.12-21 299.57-21.58 299.02-22.15 298.07-22.15L298.07-22.15Q295.32-22.15 293.19-17.55 291.07-12.95 291.07-8.45L291.07-8.45Q291.07-6.5 291.62-5.53 292.17-4.55 293.57-4.55L293.57-4.55Q294.87-4.55 296.09-5.8 297.32-7.05 297.72-8.95L297.72-8.95ZM326.87-22.7L326.87-22.7 326.87-22.4 327.42-25 334.62-25 329.67-1.8Q332.17-2.7 333.59-4.33 335.01-5.95 335.97-8.95L335.97-8.95 338.06-8.95Q336.92-5.15 334.79-2.85 332.67-0.55 329.22 0.4L329.22 0.4 328.47 4Q327.56 8.2 325.31 10.35 323.06 12.5 319.47 12.5L319.47 12.5Q316.92 12.5 315.39 11.2 313.87 9.9 313.87 7.65L313.87 7.65Q313.87 5.2 315.89 3.33 317.92 1.45 322.01 0.2L322.01 0.2 322.62-2.45Q321.31-1.1 319.81-0.4 318.31 0.3 316.62 0.3L316.62 0.3Q313.51 0.3 311.74-1.8 309.97-3.9 309.97-7.75L309.97-7.75Q309.97-10.55 310.81-13.6 311.67-16.65 313.17-19.15L313.17-19.15Q315.01-22.1 317.47-23.68 319.92-25.25 322.81-25.25L322.81-25.25Q324.76-25.25 325.81-24.58 326.87-23.9 326.87-22.7ZM323.87-8.45L326.42-20.3Q326.37-21.1 325.81-21.63 325.26-22.15 324.37-22.15L324.37-22.15Q321.62-22.15 319.49-17.55 317.37-12.95 317.37-8.45L317.37-8.45Q317.37-6.5 317.92-5.53 318.47-4.55 319.87-4.55L319.87-4.55Q321.06-4.55 322.24-5.65 323.42-6.75 323.87-8.45L323.87-8.45ZM321.22 4.15L321.51 2.7Q319.01 3.65 317.81 4.67 316.62 5.7 316.62 6.95L316.62 6.95Q316.62 7.6 317.12 8.1 317.62 8.6 318.31 8.6L318.31 8.6Q319.17 8.6 319.97 7.4 320.76 6.2 321.22 4.15L321.22 4.15ZM348.31-31.65L348.31-31.65Q348.31-30 347.14-28.85 345.96-27.7 344.31-27.7L344.31-27.7Q342.66-27.7 341.51-28.85 340.36-30 340.36-31.65L340.36-31.65Q340.36-33.3 341.51-34.48 342.66-35.65 344.31-35.65L344.31-35.65Q345.96-35.65 347.14-34.48 348.31-33.3 348.31-31.65ZM335.56-5.7L335.56-5.7Q335.56-6.35 335.66-7.18 335.76-8 335.96-8.95L335.96-8.95 339.36-25 346.56-25 342.96-8Q342.86-7.55 342.81-7.18 342.76-6.8 342.76-6.4L342.76-6.4Q342.76-5.4 343.24-4.98 343.71-4.55 344.81-4.55L344.81-4.55Q346.21-4.55 347.46-5.78 348.71-7 349.31-8.95L349.31-8.95 351.41-8.95Q349.81-4.4 347.11-2.05 344.41 0.3 340.91 0.3L340.91 0.3Q338.41 0.3 336.99-1.28 335.56-2.85 335.56-5.7ZM366.36-20.85L366.36-20.85Q366.36-19.15 365.64-18.18 364.91-17.2 363.71-17.2L363.71-17.2Q363.31-17.2 362.86-17.35 362.41-17.5 361.96-17.8L361.96-17.8Q362.26-18.6 362.41-19.35 362.56-20.1 362.56-20.75L362.56-20.75Q362.56-21.75 362.21-22.28 361.86-22.8 361.16-22.8L361.16-22.8Q358.96-22.8 356.86-17.73 354.76-12.65 354.76-8.1L354.76-8.1Q354.76-5.8 355.54-4.85 356.31-3.9 358.36-3.9L358.36-3.9Q360.71-3.9 362.69-4.98 364.66-6.05 367.21-8.95L367.21-8.95 368.91-8.95Q366.01-4.25 362.61-1.98 359.21 0.3 355.16 0.3L355.16 0.3Q351.31 0.3 349.34-1.7 347.36-3.7 347.36-7.65L347.36-7.65Q347.36-10.5 348.24-13.7 349.11-16.9 350.66-19.4L350.66-19.4Q352.51-22.4 355.09-23.93 357.66-25.45 360.81-25.45L360.81-25.45Q363.56-25.45 364.96-24.28 366.36-23.1 366.36-20.85ZM377.36-7.7L377.36-7.7Q377.36-10.55 378.28-13.75 379.21-16.95 380.81-19.45L380.81-19.45Q382.66-22.4 385.26-23.93 387.86-25.45 391.06-25.45L391.06-25.45Q394.26-25.45 395.86-23.45 397.46-21.45 397.46-17.45L397.46-17.45Q397.56-17.4 397.68-17.38 397.81-17.35 398.01-17.35L398.01-17.35Q399.56-17.35 401.71-18.2 403.86-19.05 405.71-20.35L405.71-20.35 406.16-19Q404.76-17.5 402.43-16.4 400.11-15.3 397.31-14.85L397.31-14.85Q396.71-8.1 393.41-3.95 390.11 0.2 385.36 0.2L385.36 0.2Q381.46 0.2 379.41-1.8 377.36-3.8 377.36-7.7ZM391.46-22.4L391.46-22.4Q389.06-22.4 386.93-17.55 384.81-12.7 384.81-8.35L384.81-8.35Q384.81-6 385.33-5.15 385.86-4.3 387.36-4.3L387.36-4.3Q389.21-4.3 390.88-7.3 392.56-10.3 393.16-14.7L393.16-14.7Q392.46-14.85 392.13-15.38 391.81-15.9 391.81-16.8L391.81-16.8Q391.81-17.75 392.21-18.45 392.61-19.15 393.36-19.5L393.36-19.5Q393.26-21.1 392.83-21.75 392.41-22.4 391.46-22.4ZM413.35-37.45L413.35-37.45Q415.8-37.45 417.53-35.9 419.25-34.35 419.25-32.05L419.25-32.05Q419.25-31.45 419.23-30.95 419.2-30.45 419.1-30L419.1-30 416.75-30Q416.85-30.8 416.85-30.98 416.85-31.15 416.85-31.35L416.85-31.35Q416.85-32.15 416.33-32.6 415.8-33.05 414.95-33.05L414.95-33.05Q413.7-33.05 412.78-32 411.85-30.95 411.45-28.95L411.45-28.95 410.6-25 414.25-25 413.9-23 410.2-23 404.45 4Q403.55 8.25 401.3 10.38 399.05 12.5 395.5 12.5L395.5 12.5Q393.05 12.5 391.33 10.95 389.6 9.4 389.6 7.1L389.6 7.1Q389.6 4.5 391.33 2.85 393.05 1.2 398.2-0.4L398.2-0.4 404.25-28.95Q405.15-33.15 407.45-35.3 409.75-37.45 413.35-37.45ZM397.2 4.15L397.85 1.25Q394.95 2.2 393.65 3.45 392.35 4.7 392.35 6.4L392.35 6.4Q392.35 7 392.98 7.53 393.6 8.05 394.35 8.05L394.35 8.05Q395.3 8.05 396.05 7.05 396.8 6.05 397.2 4.15L397.2 4.15ZM454.35-36.3L454.35-36.3Q455.85-36.3 457.4-36.58 458.95-36.85 460.15-37.35L460.15-37.35Q460.1-34.15 458.52-32.58 456.95-31 453.9-31L453.9-31Q452.45-31 450.67-31.25 448.9-31.5 446.15-32.1L446.15-32.1 439.25 0 432.05 0 439.15-33.1 438.55-33.1Q433.7-33.1 431.42-30.63 429.15-28.15 429.15-23L429.15-23Q429.15-22.05 429.27-21.35 429.4-20.65 429.7-20L429.7-20Q429.8-19.8 429.82-19.73 429.85-19.65 429.85-19.6L429.85-19.6Q427.05-19.6 425.77-20.78 424.5-21.95 424.5-24.45L424.5-24.45Q424.5-30.4 428.97-33.93 433.45-37.45 441.55-37.45L441.55-37.45Q443.2-37.45 444.72-37.33 446.25-37.2 448.65-36.85L448.65-36.85Q450.75-36.5 451.92-36.4 453.1-36.3 454.35-36.3ZM464.5-22.7L464.5-22.7 464.5-22.35 465.05-25 472.25-25 468.65-8Q468.55-7.55 468.5-7.18 468.45-6.8 468.45-6.4L468.45-6.4Q468.45-5.3 468.95-4.78 469.45-4.25 470.5-4.25L470.5-4.25Q471.8-4.25 472.85-5.48 473.9-6.7 474.55-8.95L474.55-8.95 476.65-8.95Q475.05-4.35 472.5-2.02 469.95 0.3 466.6 0.3L466.6 0.3Q464.45 0.3 463.17-0.9 461.9-2.1 461.7-4.3L461.7-4.3Q460.15-2 458.27-0.85 456.4 0.3 454.25 0.3L454.25 0.3Q451.15 0.3 449.37-1.8 447.6-3.9 447.6-7.75L447.6-7.75Q447.6-10.55 448.45-13.6 449.3-16.65 450.8-19.15L450.8-19.15Q452.65-22.1 455.1-23.68 457.55-25.25 460.45-25.25L460.45-25.25Q462.4-25.25 463.45-24.58 464.5-23.9 464.5-22.7ZM461.65-8.95L464.05-20.25Q464.05-21 463.5-21.58 462.95-22.15 462-22.15L462-22.15Q459.25-22.15 457.12-17.55 455-12.95 455-8.45L455-8.45Q455-6.5 455.55-5.53 456.1-4.55 457.5-4.55L457.5-4.55Q458.8-4.55 460.02-5.8 461.25-7.05 461.65-8.95L461.65-8.95ZM483.69-19L479.69 0 472.49 0 477.79-25 484.99-25 484.34-21.9Q486.54-23.75 487.82-24.38 489.09-25 490.39-25L490.39-25Q491.94-25 492.89-23.93 493.84-22.85 493.84-21.25L493.84-21.25Q493.84-19.7 492.84-18.65 491.84-17.6 490.24-17.6L490.24-17.6Q489.39-17.6 488.92-18 488.44-18.4 488.24-19.65L488.24-19.65Q488.09-20.45 487.89-20.68 487.69-20.9 487.34-20.9L487.34-20.9Q486.49-20.9 485.74-20.55 484.99-20.2 483.69-19L483.69-19ZM492.34-7.7L492.34-7.7Q492.34-10.55 493.27-13.75 494.19-16.95 495.79-19.45L495.79-19.45Q497.64-22.4 500.24-23.93 502.84-25.45 506.04-25.45L506.04-25.45Q509.24-25.45 510.84-23.45 512.44-21.45 512.44-17.45L512.44-17.45Q512.54-17.4 512.67-17.38 512.79-17.35 512.99-17.35L512.99-17.35Q514.54-17.35 516.69-18.2 518.84-19.05 520.69-20.35L520.69-20.35 521.14-19Q519.74-17.5 517.42-16.4 515.09-15.3 512.29-14.85L512.29-14.85Q511.69-8.1 508.39-3.95 505.09 0.2 500.34 0.2L500.34 0.2Q496.44 0.2 494.39-1.8 492.34-3.8 492.34-7.7ZM506.44-22.4L506.44-22.4Q504.04-22.4 501.92-17.55 499.79-12.7 499.79-8.35L499.79-8.35Q499.79-6 500.32-5.15 500.84-4.3 502.34-4.3L502.34-4.3Q504.19-4.3 505.87-7.3 507.54-10.3 508.14-14.7L508.14-14.7Q507.44-14.85 507.12-15.38 506.79-15.9 506.79-16.8L506.79-16.8Q506.79-17.75 507.19-18.45 507.59-19.15 508.34-19.5L508.34-19.5Q508.24-21.1 507.82-21.75 507.39-22.4 506.44-22.4ZM517.14-23L517.54-25 519.19-25 520.69-31.9 528.09-32.9 526.39-25 529.39-25 528.99-23 525.99-23 522.79-8Q522.69-7.55 522.64-7.18 522.59-6.8 522.59-6.4L522.59-6.4Q522.59-5.4 523.06-4.98 523.54-4.55 524.64-4.55L524.64-4.55Q526.04-4.55 527.29-5.78 528.54-7 529.14-8.95L529.14-8.95 531.24-8.95Q529.64-4.4 526.94-2.05 524.24 0.3 520.74 0.3L520.74 0.3Q518.24 0.3 516.81-1.28 515.39-2.85 515.39-5.7L515.39-5.7Q515.39-6.35 515.49-7.18 515.59-8 515.79-8.95L515.79-8.95 518.79-23 517.14-23Z" opacity="1" transform="matrix(1,0,0,1,0,0)" fill="#ffffff" class="slogan-text-1" data-fill-palette-color="secondary" id="text-1"></path></svg></g></svg></g></svg></g></svg></g><g><svg viewBox="0 0 121.03297309990324 91.68525041108012" height="91.68525041108012" width="121.03297309990324"><g><svg xmlns="http://www.w3.org/2000/svg" xmlns:xlink="http://www.w3.org/1999/xlink" version="1.1" x="0" y="0" viewBox="5.307127952575684 16.144001007080078 89.37284851074219 67.70198059082031" enable-background="new 0 0 100 100" xml:space="preserve" height="91.68525041108012" width="121.03297309990324" class="icon-icon-0" data-fill-palette-color="accent" id="icon-0"><path d="M91.382 60.237c-1.225-0.836-2.746-1.876-6.93-3.068-3.307-0.942-5.876-1.232-8.558-0.969-0.105 0.005-0.212 0.007-0.317 0.01 3.108-4.179 4.951-9.354 4.951-14.953 0-0.64-0.024-1.29-0.073-1.933-0.021-0.277-0.226-0.508-0.499-0.563-0.041-0.008-0.081-0.013-0.123-0.013-0.134 0-0.265 0.044-0.373 0.125-0.142 0.106-0.231 0.269-0.246 0.445-0.598 7.151-5.039 13.216-11.166 16.227-1.487-0.285-3.098-0.663-4.9-1.146-4.596-1.233-6.459-2.784-8.818-4.748-0.567-0.472-1.154-0.961-1.807-1.468-3.412-2.65-6.446-3.671-8.328-2.804-0.986 0.456-1.56 1.396-1.616 2.646-0.005 0.129 0.039 0.339 0.128 0.608-2.095-3.155-3.319-6.938-3.319-11.001 0-10.927 8.874-19.865 19.792-19.948l0.054 0.009c0.032 0.005 0.064 0.007 0.097 0.007 0.296 0 0.557-0.222 0.615-0.519 0.037-0.183-0.013-0.371-0.13-0.515s-0.294-0.228-0.479-0.228l-0.063 0.001c-1.267-0.195-2.563-0.295-3.856-0.295-13.846 0-25.11 11.266-25.11 25.11 0 7.868 3.641 14.899 9.322 19.507-0.823-0.27-1.735-0.432-2.758-0.459-0.026-0.028-0.045-0.054-0.072-0.081-0.513-0.546-1.046-0.821-1.583-0.821-0.436 0-0.747 0.186-0.849 0.248-0.196 0.117-0.332 0.307-0.383 0.534-0.101 0.45 0.073 1.056 1.255 2.819 0.524 0.782 1.207 1.729 1.667 2.1 0.213 0.32 0.543 0.826 0.893 1.409-0.768 0.47-1.374 0.927-1.827 1.274-0.243 0.186-0.459 0.35-0.645 0.474-0.524-0.5-0.942-1.178-1.147-1.511-0.426-0.692-3.158-4.731-4.981-5.933-1.701-1.122-2.086-1.223-3.158-1.396l-0.077-0.012c-0.119-0.02-0.299-0.049-0.51-0.067-0.078-0.088-0.15-0.175-0.239-0.27-0.513-0.544-1.046-0.821-1.583-0.821-0.435 0-0.746 0.187-0.849 0.249-0.195 0.117-0.331 0.307-0.382 0.534-0.101 0.449 0.072 1.056 1.254 2.82 0.383 0.571 0.851 1.229 1.254 1.688 0.12 0.16 0.247 0.327 0.382 0.503 0.562 0.734 1.111 1.438 1.645 2.123-0.778-0.687-1.524-1.449-1.868-1.884-0.503-0.64-2.903-3.212-4.873-4.206-1.818-0.919-2.212-0.973-3.297-1.023l-0.079-0.003c-0.12-0.005-0.302-0.014-0.514-0.007-0.088-0.079-0.169-0.157-0.269-0.241-0.507-0.427-1.007-0.645-1.487-0.645-0.534 0-0.88 0.268-0.994 0.355-0.181 0.139-0.293 0.344-0.318 0.575-0.048 0.459 0.194 1.04 1.57 2.656 0.447 0.523 0.986 1.123 1.439 1.532 0.139 0.146 0.284 0.297 0.439 0.457 0.41 0.424 0.813 0.835 1.209 1.239-1.714-0.663-4.35-1.562-5.872-1.562-0.001 0-0.003 0-0.005 0-2.039 0.003-2.414 0.132-3.405 0.577l-0.071 0.033c-0.11 0.05-0.276 0.124-0.463 0.226-0.114-0.031-0.221-0.064-0.347-0.094-0.267-0.063-0.518-0.095-0.746-0.095-0.52 0-1.22 0.167-1.599 0.958-0.098 0.206-0.106 0.439-0.023 0.657 0.164 0.431 0.643 0.84 2.601 1.659 0.828 0.347 1.5 0.59 1.992 0.723 0.184 0.064 0.377 0.133 0.582 0.204 0.921 0.318 1.815 0.618 2.68 0.909 2.672 0.896 4.979 1.669 6.91 2.603 0.942 0.458 1.874 0.608 2.735 0.608 0.613 0 1.187-0.078 1.708-0.175 1.21 1.116 2.444 1.497 3.398 1.781 0.324 0.097 0.629 0.188 0.878 0.294 1.003 0.424 4.834 1.266 7.933 1.537 0.135 0.056 0.259 0.111 0.357 0.167 1.244 0.704 5.8 1.447 8.722 1.447 0.146 0 0.288-0.002 0.426-0.006 1.521-0.043 3.095-0.037 4.182-0.023 0.754 0.275 1.604 0.658 2.55 1.24 3.485 2.145 5.236 2.6 10.105 1.476 4.676-1.08 6.865-0.767 10.748 0.205 4.109 1.026 6.829 1.649 9.946 1.649 2.074 0 2.074 0 2.682 0.836 0.199 0.274 0.448 0.614 0.807 1.042l0.952-0.8c-0.331-0.395-0.564-0.717-0.753-0.975-0.898-1.233-1.207-1.347-3.688-1.347-2.975 0-5.628-0.61-9.645-1.614-3.993-0.998-6.413-1.345-11.33-0.209-4.507 1.04-5.926 0.676-9.174-1.323-2.011-1.237-3.679-1.667-4.783-1.951-0.607-0.157-1.182-0.305-1.317-0.484-0.371-0.494-0.821-0.821-1.446-1.277-0.578-0.421-1.368-0.996-2.474-1.977-0.719-0.637-1.26-1.042-1.696-1.367-0.929-0.695-1.277-0.956-1.93-2.458-0.469-1.078-1.185-2.267-1.702-3.073 0.267-0.146 0.526-0.357 0.667-0.676 0.13-0.295 0.199-0.773-0.214-1.38-0.207-0.303-0.379-0.569-0.539-0.813-0.114-0.177-0.222-0.342-0.331-0.503 2.144 0.288 3.616 1.281 4.46 3.036 0.519 1.078 1.169 2.054 1.934 2.895 0.093 0.103 0.217 0.17 0.353 0.195 0.142 0.023 0.293 0.047 0.457 0.072 0.729 0.111 1.638 0.251 2.93 0.721 1.321 0.479 2.481 1.498 3.222 2.269 0.003 0.004 0.006 0.007 0.01 0.011 0.122 0.123 0.293 0.159 0.443 0.183 2.112 0.164 3.142-0.187 3.895-0.442 0.174-0.06 0.331-0.114 0.486-0.151 3.491-0.85 3.699-0.901 8.588-1.424 1.36-0.146 2.362-0.24 3.16-0.314 1.999-0.188 2.747-0.257 4.615-0.711 2.784-0.675 3.465-2.063 3.532-2.221l-1.133-0.513c-0.005 0.01-0.52 0.999-2.692 1.525-1.781 0.432-2.451 0.494-4.438 0.681-0.803 0.075-1.81 0.17-3.178 0.316-4.784 0.512-5.11 0.565-8.75 1.452-0.189 0.046-0.38 0.109-0.592 0.181-0.665 0.228-1.486 0.505-3.22 0.394-0.836-0.84-2.08-1.879-3.525-2.403-1.407-0.512-2.423-0.667-3.166-0.781-0.075-0.012-0.148-0.022-0.219-0.033-0.296-0.341-0.571-0.706-0.826-1.091 0.871-0.156 1.796-0.271 2.76-0.341 0.184-0.013 0.355-0.021 0.536-0.032 2.476 0.819 5.119 1.269 7.866 1.269 7.67 0 14.543-3.459 19.152-8.896 0.473 0.001 0.941-0.01 1.412-0.03 2.551-0.248 4.98 0.027 8.128 0.925 3.99 1.137 5.42 2.113 6.568 2.899 0.982 0.67 1.828 1.25 3.729 1.688l0.28-1.212C93.017 61.354 92.295 60.861 91.382 60.237zM37.534 63.99c-0.198-0.21-0.592-0.68-1.261-1.679-0.605-0.904-0.868-1.397-0.981-1.657 0.166 0.037 0.379 0.186 0.602 0.422 0.567 0.603 0.876 1.076 1.303 1.731 0.164 0.251 0.342 0.524 0.554 0.835 0.078 0.114 0.093 0.188 0.105 0.175C37.822 63.869 37.688 63.938 37.534 63.99zM25.95 62.84c-0.198-0.209-0.592-0.68-1.261-1.678-0.605-0.904-0.868-1.396-0.981-1.657 0.166 0.037 0.38 0.186 0.603 0.422 0.567 0.603 0.876 1.076 1.302 1.731 0.164 0.251 0.341 0.523 0.554 0.835 0.078 0.114 0.097 0.189 0.105 0.174C26.238 62.72 26.104 62.789 25.95 62.84zM17.204 62.462c-0.222-0.186-0.667-0.606-1.446-1.521-0.706-0.829-1.023-1.288-1.166-1.533 0.114 0.012 0.324 0.077 0.646 0.35 0.632 0.534 0.993 0.967 1.493 1.569 0.19 0.229 0.399 0.481 0.646 0.767 0.089 0.104 0.114 0.176 0.125 0.161C17.475 62.31 17.35 62.394 17.204 62.462zM10.427 66.894c-0.281-0.065-0.869-0.241-1.978-0.704-1.004-0.42-1.496-0.688-1.733-0.843 0.136-0.053 0.403-0.058 0.735 0.021 0.806 0.19 1.323 0.415 2.04 0.726 0.275 0.119 0.575 0.249 0.924 0.393 0.127 0.052 0.18 0.103 0.184 0.087C10.6 66.635 10.526 66.766 10.427 66.894zM20.674 70.656c-2.001-0.97-4.343-1.756-7.056-2.665-0.645-0.216-1.311-0.44-1.988-0.673 0.149-0.272 0.255-0.599 0.196-0.95-0.054-0.318-0.261-0.757-0.94-1.034-0.34-0.14-0.632-0.267-0.9-0.382-0.074-0.032-0.143-0.061-0.215-0.092 0.458-0.152 0.959-0.201 2.251-0.203 0.001 0 0.002 0 0.004 0 1.805 0 5.946 1.646 6.898 2.087 0.266 0.124 0.698 0.32 1.188 0.486 1.332 1.368 2.501 2.626 3.457 3.866C22.675 71.188 21.667 71.137 20.674 70.656zM29.336 73.137c-0.313-0.132-0.65-0.232-1.008-0.339-1.149-0.343-2.453-0.73-3.684-2.349-1.348-1.769-3.083-3.529-5.093-5.567-0.476-0.483-0.969-0.984-1.467-1.496 0.256-0.176 0.5-0.42 0.604-0.76 0.096-0.309 0.11-0.793-0.371-1.347-0.241-0.278-0.444-0.523-0.63-0.748-0.051-0.062-0.098-0.116-0.147-0.176 0.476 0.072 0.944 0.252 2.097 0.834 1.731 0.873 4.025 3.319 4.456 3.865 0.029 0.036 3.11 3.607 4.902 3.779 0.906 1.202 1.706 2.331 2.359 3.432 0.438 0.738 0.995 1.304 1.59 1.752C31.235 73.695 29.803 73.335 29.336 73.137zM40.154 70.641c0.309 0.318 0.644 0.574 1.058 0.884 0.417 0.313 0.935 0.7 1.615 1.304 1.15 1.02 1.969 1.616 2.567 2.051 0.577 0.42 0.924 0.674 1.183 1.018 0.08 0.108 0.18 0.191 0.283 0.273-0.202 0.005-0.405 0.009-0.606 0.015-2.759 0.074-7.492-0.709-8.499-1.28-0.352-0.198-0.795-0.356-1.311-0.541-1.356-0.484-3.043-1.087-4.021-2.733-1.135-1.911-2.657-3.859-4.418-6.114-0.418-0.537-0.85-1.092-1.287-1.656 0.275-0.146 0.544-0.36 0.689-0.685 0.13-0.296 0.199-0.775-0.214-1.382-0.206-0.303-0.38-0.569-0.539-0.813-0.043-0.067-0.085-0.129-0.127-0.194 0.465 0.126 0.91 0.359 1.988 1.07 1.504 0.991 4.057 4.652 4.607 5.547 0.445 0.724 1.487 2.416 3.018 2.671C37.2 70.25 39.442 70.547 40.154 70.641zM38.412 67.595c0.174 0.329 0.336 0.657 0.474 0.974 0.113 0.26 0.221 0.484 0.325 0.691-0.85-0.114-1.92-0.263-2.628-0.375 0.049-0.037 0.095-0.07 0.146-0.111C37.175 68.433 37.721 68.021 38.412 67.595zM44.717 46.511c1.098-0.508 3.524-0.076 7.042 2.656 0.64 0.498 1.217 0.978 1.772 1.44 2.379 1.98 4.434 3.691 9.293 4.994 1.143 0.306 2.208 0.569 3.22 0.797-2.105 0.764-4.365 1.184-6.708 1.184-4.81 0-9.226-1.711-12.674-4.555-1.649-2.112-2.788-4.543-2.841-4.946C43.856 47.298 44.158 46.769 44.717 46.511zM43.599 64.336c-0.036-0.072-0.075-0.141-0.109-0.212-0.217-0.448-0.479-0.844-0.764-1.213 0.738 0.435 1.5 0.83 2.285 1.189C44.529 64.169 44.054 64.244 43.599 64.336zM74.329 55.282c-0.278 0.374-0.587 0.762-0.944 1.183-4.498 5.306-11.047 8.348-17.967 8.348-2.508 0-4.99-0.4-7.378-1.19-0.804-0.266-1.605-0.58-2.382-0.936-0.734-0.337-1.456-0.711-2.144-1.116-1.02-0.6-1.998-1.277-2.906-2.015-5.558-4.507-8.746-11.177-8.746-18.299 0-11.041 7.639-20.334 17.909-22.871-7.065 3.536-11.938 10.852-11.938 19.248 0 4.233 1.238 8.334 3.58 11.861 1.184 1.785 2.618 3.377 4.261 4.731 3.839 3.166 8.692 4.91 13.664 4.91 2.467 0 4.901-0.43 7.238-1.275 0.728-0.264 1.453-0.573 2.159-0.92 3.831-1.883 6.967-4.833 9.086-8.384C77.039 50.95 75.868 53.215 74.329 55.282z" fill="#ffffff" data-fill-palette-color="accent"></path></svg></g></svg></g></svg></g><defs></defs></svg><rect width="395.52" height="69.06793933010543" fill="none" stroke="none" visibility="hidden"></rect></g></svg></g></svg>